{
  "streams": [
    {
      "index": 0,
      "codec_name": "dnxhd",
      "codec_long_name": "VC3/DNxHD",
      "profile": "DNXHD",
      "codec_type": "video",
      "codec_tag_string": "[0][0][0][0]",
      "codec_tag": "0x0000",
      "width": 1920,
      "height": 1080,
      "coded_width": 1920,
      "coded_height": 1088,
      "has_b_frames": 0,
      "sample_aspect_ratio": "1:1",
      "display_aspect_ratio": "16:9",
      "pix_fmt": "yuv422p",
      "level": -99,
      "color_space": "bt709",
      "field_order": "progressive",
      "refs": 1,
      "r_frame_rate": "25/1",
      "avg_frame_rate": "25/1",
      "time_base": "1/25",
      "start_pts": 0,
      "start_time": "0.000000",
      "duration_ts": 1288,
      "duration": "51.520000",
      "bits_per_raw_sample": "8",
      "disposition": {
        "default": 0,
        "dub": 0,
        "original": 0,
        "comment": 0,
        "lyrics": 0,
        "karaoke": 0,
        "forced": 0,
        "hearing_impaired": 0,
        "visual_impaired": 0,
        "clean_effects": 0,
        "attached_pic": 0,
        "timed_thumbnails": 0,
        "non_diegetic": 0,
        "captions": 0,
        "descriptions": 0,
        "metadata": 0,
        "dependent": 0,
        "still_image": 0,
        "multilayer": 0
      },
      "tags": {
        "file_package_umid": "0x060A2B340101010501010D2013000000DA17FF15E06B48B6BD6A605154D6AEB4",
        "track_name": "Picture Track"
      }
    },
    {
      "index": 1,
      "codec_name": "pcm_s24le",
      "codec_long_name": "PCM signed 24-bit little-endian",
      "codec_type": "audio",
      "codec_tag_string": "[0][0][0][0]",
      "codec_tag": "0x0000",
      "sample_fmt": "s32",
      "sample_rate": "48000",
      "channels": 1,
      "bits_per_sample": 24,
      "initial_padding": 0,
      "r_frame_rate": "0/0",
      "avg_frame_rate": "0/0",
      "time_base": "1/48000",
      "start_pts": 0,
      "start_time": "0.000000",
      "duration_ts": 2472960,
      "duration": "51.520000",
      "bit_rate": "1152000",
      "bits_per_raw_sample": "24",
      "disposition": {
        "default": 0,
        "dub": 0,
        "original": 0,
        "comment": 0,
        "lyrics": 0,
        "karaoke": 0,
        "forced": 0,
        "hearing_impaired": 0,
        "visual_impaired": 0,
        "clean_effects": 0,
        "attached_pic": 0,
        "timed_thumbnails": 0,
        "non_diegetic": 0,
        "captions": 0,
        "descriptions": 0,
        "metadata": 0,
        "dependent": 0,
        "still_image": 0,
        "multilayer": 0
      },
      "tags": {
        "file_package_umid": "0x060A2B340101010501010D2013000000DA17FF15E06B48B6BD6A605154D6AEB4",
        "track_name": "Sound Track"
      }
    },
    {
      "index": 2,
      "codec_name": "pcm_s24le",
      "codec_long_name": "PCM signed 24-bit little-endian",
      "codec_type": "audio",
      "codec_tag_string": "[0][0][0][0]",
      "codec_tag": "0x0000",
      "sample_fmt": "s32",
      "sample_rate": "48000",
      "channels": 1,
      "bits_per_sample": 24,
      "initial_padding": 0,
      "r_frame_rate": "0/0",
      "avg_frame_rate": "0/0",
      "time_base": "1/48000",
      "start_pts": 0,
      "start_time": "0.000000",
      "duration_ts": 2472960,
      "duration": "51.520000",
      "bit_rate": "1152000",
      "bits_per_raw_sample": "24",
      "disposition": {
        "default": 0,
        "dub": 0,
        "original": 0,
        "comment": 0,
        "lyrics": 0,
        "karaoke": 0,
        "forced": 0,
        "hearing_impaired": 0,
        "visual_impaired": 0,
        "clean_effects": 0,
        "attached_pic": 0,
        "timed_thumbnails": 0,
        "non_diegetic": 0,
        "captions": 0,
        "descriptions": 0,
        "metadata": 0,
        "dependent": 0,
        "still_image": 0,
        "multilayer": 0
      },
      "tags": {
        "file_package_umid": "0x060A2B340101010501010D2013000000DA17FF15E06B48B6BD6A605154D6AEB4",
        "track_name": "Sound Track"
      }
    }
  ],
  "format": {
    "filename": "LR-2026-0218-KROSSADETOMTAR-01.mxf",
    "nb_streams": 3,
    "nb_programs": 0,
    "nb_stream_groups": 0,
    "format_name": "mxf",
    "format_long_name": "MXF (Material eXchange Format)",
    "start_time": "0.000000",
    "duration": "51.520000",
    "size": "301498368",
    "bit_rate": "46816516",
    "probe_score": 100
  }
}
